<?xml version="1.0" encoding="UTF-8"?>
<svg version="1.1" xmlns="http://www.w3.org/2000/svg" width="1536" height="1024">
<path d="M0 0 C506.88 0 1013.76 0 1536 0 C1536 337.92 1536 675.84 1536 1024 C1029.12 1024 522.24 1024 0 1024 C0 686.08 0 348.16 0 0 Z " fill="#FCFAF7" transform="translate(0,0)"/>
<path d="M0 0 C1.00823958 -0.00384115 2.01647915 -0.00768229 3.05527145 -0.01163983 C4.15584339 -0.01077335 5.25641533 -0.00990687 6.39033794 -0.00901413 C7.56502862 -0.01198525 8.7397193 -0.01495637 9.95000666 -0.01801753 C13.20692673 -0.02518916 16.46381463 -0.02787617 19.72074139 -0.028615 C23.23481944 -0.03046841 26.74888612 -0.03801713 30.26295757 -0.04475021 C37.94477026 -0.05832161 45.62657772 -0.06435621 53.30840039 -0.06876087 C58.10580159 -0.07152494 62.90320078 -0.07576256 67.70060062 -0.08026505 C80.98609096 -0.09245545 94.27157969 -0.10275567 107.5570755 -0.10614014 C108.40705944 -0.1063597 109.25704338 -0.10657927 110.13278441 -0.10680549 C110.98478525 -0.10702377 111.8367861 -0.10724204 112.71460515 -0.10746694 C114.44104469 -0.1079104 116.16748422 -0.10835696 117.89392376 -0.10880661 C118.75029482 -0.10902804 119.60666589 -0.10924947 120.48898759 -0.10947761 C134.36692175 -0.1134261 148.24480342 -0.13088268 162.1227173 -0.15416613 C176.37463271 -0.1778839 190.62652178 -0.19034216 204.87845725 -0.19150805 C212.87895549 -0.1924245 220.87938531 -0.19816929 228.87986469 -0.21632767 C235.69185477 -0.23173429 242.50375527 -0.23684576 249.31575946 -0.22858956 C252.79018499 -0.22468522 256.26443014 -0.22560198 259.73883343 -0.23964691 C263.5084847 -0.25232196 267.2776725 -0.24651318 271.04732037 -0.23606491 C272.14120014 -0.24412132 273.23507992 -0.25217772 274.36210757 -0.26047826 C281.23852244 -0.21588013 287.50649174 0.23225702 292.96789837 4.88533401 C293.42293743 5.48216995 293.87797649 6.07900589 294.34680462 6.69392776 C294.81989056 7.29334183 295.29297649 7.89275589 295.78039837 8.51033401 C301.08021474 16.12079696 297.36720753 28.6359935 295.90930462 37.13142776 C295.67422302 38.67259306 295.44266568 40.21429864 295.21399212 41.75642776 C294.04270821 49.59676314 292.76840659 57.2804087 290.70129681 64.94368362 C289.83102577 68.44649774 289.14767218 71.9533689 288.49133587 75.50252151 C288.36213253 76.20003525 288.23292919 76.89754898 288.0998106 77.61619949 C286.85209481 84.38036987 285.64965565 91.15253437 284.46145916 97.92738724 C284.08321042 100.08393368 283.70378062 102.24026978 283.32409954 104.39656448 C282.51818248 108.97467923 281.71363025 113.55303319 280.90930462 118.13142776 C279.97486599 123.45045354 279.03981647 128.76937055 278.10330486 134.08803177 C277.73542164 136.17903045 277.36859486 138.27021246 277.00183392 140.36140823 C275.57152684 148.4970499 274.08139179 156.61924147 272.5456419 164.73558426 C271.81156352 168.65302768 271.13504039 172.57644686 270.47180462 176.50642776 C264.6252554 209.79429046 264.6252554 209.79429046 255.04602337 217.87752151 C248.08091902 221.9649045 241.99105714 222.55889605 234.08703899 222.47200394 C233.03248516 222.47244202 231.97793133 222.4728801 230.89142132 222.47333145 C227.42843979 222.47125234 223.9659509 222.44796223 220.50305462 222.42439651 C218.09310451 222.41879746 215.68315097 222.41452882 213.27319622 222.41153336 C206.94713098 222.40010908 200.62127416 222.37066248 194.29529095 222.33742142 C187.83332418 222.30666851 181.37132356 222.29301686 174.90930462 222.27791214 C162.24254931 222.24579066 149.57593808 222.19520455 136.90930462 222.13142776 C136.90930462 221.80142776 136.90930462 221.47142776 136.90930462 221.13142776 C137.73430462 220.97287308 138.55930462 220.81431839 139.40930462 220.65095901 C172.57310479 213.95157528 202.96497755 197.7452642 222.13586712 168.94392776 C222.72110149 168.01580276 223.30633587 167.08767776 223.90930462 166.13142776 C224.25316204 165.59517776 224.59701946 165.05892776 224.95129681 164.50642776 C230.22175408 156.17045298 234.09076475 147.62802627 237.34680462 138.31892776 C237.67672405 137.37702591 238.00664349 136.43512405 238.34656048 135.46467972 C242.18800916 123.9865315 243.25212117 113.27810686 243.22180462 101.19392776 C243.2379179 99.91324417 243.25403118 98.63256058 243.27063274 97.31306839 C243.27480448 89.12395453 242.23982077 81.96683533 239.90930462 74.13142776 C239.51084183 72.54875412 239.11456504 70.96552616 238.72180462 69.38142776 C235.08852528 57.6300399 228.66131737 46.60292579 220.90930462 37.13142776 C220.16035931 36.20716995 219.41141399 35.28291214 218.63977337 34.33064651 C209.30299182 23.425165 198.00631909 16.84469577 185.24524212 10.76033401 C181.90930462 9.13142776 181.90930462 9.13142776 178.90930462 7.13142776 C177.03837063 6.51774579 177.03837063 6.51774579 174.99524212 6.09627151 C173.85248821 5.84200394 173.85248821 5.84200394 172.68664837 5.58259964 C171.89387493 5.41308792 171.10110149 5.2435762 170.28430462 5.06892776 C169.51473431 4.89554886 168.74516399 4.72216995 167.95227337 4.54353714 C150.26691446 0.6776421 133.26026106 1.10705335 115.90930462 6.13142776 C114.72207806 6.45498245 113.53485149 6.77853714 112.31164837 7.11189651 C106.23957572 8.85184716 100.6934764 10.99062307 95.12805462 13.98299026 C91.64195417 15.7874155 88.87107713 17.13142776 84.90930462 17.13142776 C84.57930462 18.12142776 84.24930462 19.11142776 83.90930462 20.13142776 C81.86242962 21.78767776 81.86242962 21.78767776 79.15930462 23.63142776 C51.0140527 43.6466393 31.7580692 71.57054613 25.90930462 106.13142776 C25.38798327 109.80092269 25.08458059 113.4300116 24.90930462 117.13142776 C24.84485149 118.13947464 24.78039837 119.14752151 24.71399212 120.18611526 C24.14033477 136.43974025 27.97688754 152.49632503 34.90930462 167.13142776 C35.42235149 168.23744339 35.93539837 169.34345901 36.46399212 170.48299026 C47.81421696 193.23774724 68.56131342 208.85402856 92.22961712 217.31892776 C99.03747557 219.50774277 105.84244154 221.05511195 112.90930462 222.13142776 C112.90930462 222.46142776 112.90930462 222.79142776 112.90930462 223.13142776 C92.72489084 223.20157798 72.54050187 223.25444539 52.35599136 223.28686428 C42.98350284 223.30231851 33.61109016 223.3233804 24.23865032 223.35774612 C16.06751371 223.38769271 7.89643204 223.40701326 -0.27475792 223.41369325 C-4.59942813 223.4175966 -8.92394118 223.42673985 -13.24856091 223.44861794 C-17.32379917 223.46906627 -21.39881637 223.47524479 -25.47410107 223.47075081 C-26.96517357 223.47157229 -28.45625389 223.47748812 -29.94728184 223.48904419 C-39.1850368 223.55709441 -47.93506584 223.59126829 -55.52819538 217.69392776 C-59.88622261 213.33590054 -60.3838441 210.34118572 -60.40319538 204.19392776 C-60.36543134 198.15749125 -59.50727577 192.69945174 -57.99303913 186.86580276 C-56.91334458 182.3974565 -56.15564718 177.91438226 -55.40319538 173.38142776 C-53.57337917 162.52970274 -51.471758 151.73940079 -49.34069538 140.94392776 C-46.51027083 126.58964364 -43.80465914 112.21866094 -41.21569538 97.81892776 C-38.37056426 82.02677309 -35.4503887 66.2499461 -32.44195271 50.48802567 C-32.00378156 48.1896921 -31.5674243 45.89101189 -31.13299274 43.59196854 C-30.52396563 40.37230657 -29.90790854 37.15406651 -29.28991413 33.93611526 C-29.11206882 32.99003906 -28.93422352 32.04396286 -28.75098896 31.06921768 C-24.91547149 11.28346463 -24.91547149 11.28346463 -16.09850788 4.62752151 C-10.81113721 1.12588546 -6.35790664 0.00912359 0 0 Z " fill="#554CCD" transform="translate(669.0906953811646,319.8685722351074)"/>
<path d="M0 0 C2.54627164 1.97738198 4.98945298 4.02729272 7.41015625 6.15625 C8.16039062 6.81109375 8.910625 7.4659375 9.68359375 8.140625 C20.68619857 18.40972283 27.58276877 31.05772099 32.41015625 45.15625 C32.73757813 46.10757813 33.065 47.05890625 33.40234375 48.0390625 C38.93155357 65.25860164 37.77352817 85.90977348 31.91015625 102.84375 C31.55630859 103.88031738 31.20246094 104.91688477 30.83789062 105.98486328 C26.09664525 119.41769988 19.96333127 131.49866169 10.41015625 142.15625 C9.68957031 142.99542969 8.96898437 143.83460938 8.2265625 144.69921875 C-9.27255734 164.74587076 -32.24434003 177.48491448 -58.58984375 181.15625 C-59.40582031 181.28644531 -60.22179687 181.41664063 -61.0625 181.55078125 C-78.15772293 183.94730783 -95.08043196 181.74507983 -110.58984375 174.15625 C-111.6365625 173.66382813 -112.68328125 173.17140625 -113.76171875 172.6640625 C-133.66001538 162.71491419 -147.68832152 145.85694156 -155.40234375 125.09375 C-156.15686597 122.78939836 -156.88724358 120.47695965 -157.58984375 118.15625 C-158.069375 116.65578125 -158.069375 116.65578125 -158.55859375 115.125 C-162.80264863 99.87783988 -161.34959308 83.34301037 -157.58984375 68.15625 C-157.34621094 67.09792969 -157.10257813 66.03960937 -156.8515625 64.94921875 C-149.58098156 37.55532372 -128.549129 12.76999629 -104.58984375 -1.84375 C-72.03252557 -20.45924823 -31.54074175 -22.45434405 0 0 Z " fill="#D68CE9" transform="translate(865.58984375,348.84375)"/>
<path d="M0 0 C1.0400972 -0.00686325 2.0801944 -0.0137265 3.15180969 -0.02079773 C6.57148092 -0.03901815 9.99069129 -0.03523494 13.41040039 -0.02954102 C15.79879403 -0.03410499 18.18718635 -0.03941121 20.57557678 -0.04542542 C25.57452743 -0.05434714 30.57331824 -0.05194384 35.57226562 -0.04199219 C41.9655578 -0.03050242 48.35829765 -0.05071959 54.7515173 -0.07990932 C59.68188457 -0.09829018 64.61211994 -0.09797507 69.54251289 -0.0922718 C71.89913266 -0.09211883 74.25576151 -0.09814331 76.61234856 -0.11056328 C79.91248717 -0.12550697 83.21161101 -0.11477046 86.51171875 -0.09765625 C87.47667267 -0.10732422 88.44162659 -0.11699219 89.43582153 -0.12695312 C97.33314525 -0.04156554 103.97537971 1.80218911 109.69555664 7.46655273 C112.6644108 11.24286998 113.52945896 15.27326484 114.62133789 19.88061523 C115.91980698 24.56671039 118.16999014 26.71860886 122.25805664 29.15405273 C127.51325645 31.29903225 132.50339963 31.58150089 138.12915039 31.68530273 C138.93154648 31.70321365 139.73394257 31.72112457 140.56065369 31.73957825 C142.34220833 31.7781806 144.12381425 31.81446592 145.90545654 31.8487854 C148.8188569 31.9052307 151.73203029 31.96924092 154.64526367 32.03369141 C167.6951169 32.30783684 180.7428635 32.44785021 193.79502296 32.53078079 C199.10187851 32.56647866 204.40866203 32.61209671 209.71544552 32.65712929 C215.01720891 32.70056625 220.31868939 32.72575756 225.62061024 32.73845387 C228.98090701 32.75059082 232.34092833 32.77914385 235.70108223 32.81180382 C237.27747496 32.82368166 238.8539365 32.82870549 240.43037224 32.82636452 C250.02497615 32.81605544 257.4379414 32.88763363 264.82055664 39.71655273 C266.71550671 43.11167161 266.42838951 45.57149292 266.32055664 49.40405273 C265.65622683 49.40828467 264.99189701 49.41251661 264.30743599 49.41687679 C218.86478236 49.70676759 173.42229782 50.0172277 127.97997212 50.35476059 C123.07051374 50.39119719 118.16105163 50.42707327 113.25158691 50.46264648 C100.0014764 50.55911815 86.75151983 50.66463456 73.50164795 50.78982544 C69.73201606 50.82513757 65.9623896 50.8559512 62.19268799 50.88278198 C57.84748117 50.91388751 53.5024556 50.95396351 49.15739822 51.00149536 C47.61368327 51.01691309 46.06993267 51.02918188 44.52616501 51.0378418 C30.55841261 50.70582217 30.55841261 50.70582217 18.07055664 56.02905273 C17.46727539 56.47506836 16.86399414 56.92108398 16.24243164 57.38061523 C9.41976221 64.56383224 8.11403751 71.95282952 6.75805664 81.59155273 C6.38482132 84.08550321 6.00844168 86.57898485 5.62915039 89.07202148 C5.53109604 89.72653793 5.43304169 90.38105438 5.33201599 91.05540466 C4.51438744 96.41308952 3.51518253 101.72587084 2.47680664 107.04467773 C-0.16646873 120.63783415 -2.37136766 134.3031742 -4.61694336 147.96655273 C-5.45716119 153.07239207 -6.2995048 158.17787285 -7.14428711 163.28295898 C-7.35072845 164.5325943 -7.5571698 165.78222961 -7.76986694 167.06973267 C-9.43816176 177.10391009 -11.21483894 187.11696791 -13.0712738 197.11805725 C-13.95518179 201.95491189 -14.76104588 206.73716264 -15.19482422 211.63671875 C-15.54224656 215.54274168 -16.23155701 219.23522288 -17.13519287 223.0475769 C-18.1856307 227.59572416 -18.99053668 232.19445632 -19.84350586 236.78295898 C-20.13890762 238.36197243 -20.13890762 238.36197243 -20.4402771 239.97288513 C-21.06309563 243.30384242 -21.68380309 246.63518897 -22.30444336 249.96655273 C-22.72878258 252.23806326 -23.15326036 254.5095479 -23.57788086 256.78100586 C-24.61333744 262.32172324 -25.64706549 267.86276094 -26.67944336 273.40405273 C-27.00944336 273.40405273 -27.33944336 273.40405273 -27.67944336 273.40405273 C-28.47995446 269.15637804 -28.82445624 265.1104117 -28.87980652 260.79051208 C-28.89874907 259.47278494 -28.91769161 258.15505779 -28.93720818 256.79739952 C-28.95324941 255.34654281 -28.96912893 253.89568429 -28.98486328 252.44482422 C-29.00473978 250.90540989 -29.02493641 249.36599967 -29.04542732 247.8265934 C-29.09971875 243.62944835 -29.1473913 239.43225271 -29.19321465 235.23500752 C-29.2225813 232.57230602 -29.25346462 229.90962594 -29.28474998 227.24694633 C-29.72068499 189.90026359 -29.92986582 152.552893 -29.96869087 115.20376015 C-29.9796599 104.80030155 -30.00493317 94.39708317 -30.04818755 83.99370676 C-30.07830566 76.48373335 -30.09314587 68.97382439 -30.09646767 61.46379179 C-30.09879483 57.04525992 -30.10747066 52.62697756 -30.13292885 48.20851326 C-30.15618126 44.11901809 -30.16045493 40.02993954 -30.15016747 35.94039536 C-30.14967374 34.4524782 -30.15594593 32.96453993 -30.16972351 31.47668648 C-30.24722754 22.61380838 -30.23668594 14.4454117 -24.01721668 7.56524754 C-17.11456499 0.8868272 -9.17897197 -0.04273158 0 0 Z " fill="#883ED8" transform="translate(620.679443359375,243.595947265625)"/>
<path d="M0 0 C22.02705829 -0.07011505 44.05409814 -0.12300044 66.08124542 -0.15543652 C76.3090844 -0.17089818 86.536854 -0.19197436 96.76464844 -0.22631836 C105.68032932 -0.2562421 114.59595995 -0.27558009 123.51168966 -0.28226548 C128.23147396 -0.28617269 132.95111449 -0.29534066 137.67085266 -0.31719017 C142.11625287 -0.33760229 146.56145053 -0.34382425 151.00689316 -0.33932304 C152.63545203 -0.34014613 154.26401791 -0.34608361 155.89253616 -0.35761642 C173.91667361 -0.47896309 173.91667361 -0.47896309 180.05859375 4.75390625 C180.51363281 5.35074219 180.96867188 5.94757813 181.4375 6.5625 C181.91058594 7.16191406 182.38367188 7.76132812 182.87109375 8.37890625 C188.17091012 15.9893692 184.45790291 28.50456573 183 37 C182.76491841 38.5411653 182.53336106 40.08287088 182.3046875 41.625 C181.13340359 49.46533537 179.85910197 57.14898094 177.79199219 64.81225586 C176.92172115 68.31506997 176.23836756 71.82194113 175.58203125 75.37109375 C175.45282791 76.06860748 175.32362457 76.76612122 175.19050598 77.48477173 C173.94279019 84.24894211 172.74035103 91.0211066 171.55215454 97.79595947 C171.1739058 99.95250592 170.794476 102.10884201 170.41479492 104.26513672 C169.60887786 108.84325146 168.80432563 113.42160543 168 118 C167.06556137 123.31902578 166.13051185 128.63794279 165.19400024 133.956604 C164.82611702 136.04760269 164.45929025 138.1387847 164.0925293 140.22998047 C162.66222222 148.36562214 161.17208717 156.48781371 159.63633728 164.60415649 C158.9022589 168.52159991 158.22573577 172.44501909 157.5625 176.375 C151.71595078 209.66286269 151.71595078 209.66286269 142.13671875 217.74609375 C135.17161441 221.83347674 129.08175252 222.42746828 121.17773438 222.34057617 C120.12318054 222.34101425 119.06862671 222.34145233 117.9821167 222.34190369 C114.51913517 222.33982457 111.05664628 222.31653446 107.59375 222.29296875 C105.18379989 222.28736969 102.77384635 222.28310106 100.3638916 222.28010559 C94.03782636 222.26868132 87.71196954 222.23923471 81.38598633 222.20599365 C74.92401956 222.17524075 68.46201894 222.16158909 62 222.14648438 C49.3332447 222.11436289 36.66663346 222.06377678 24 222 C24 221.67 24 221.34 24 221 C24.825 220.84144531 25.65 220.68289063 26.5 220.51953125 C59.66380017 213.82014751 90.05567293 197.61383644 109.2265625 168.8125 C110.10441406 167.4203125 110.10441406 167.4203125 111 166 C111.51578613 165.195625 111.51578613 165.195625 112.04199219 164.375 C117.31244946 156.03902521 121.18146013 147.4965985 124.4375 138.1875 C124.76741943 137.24559814 125.09733887 136.30369629 125.43725586 135.33325195 C129.27870454 123.85510373 130.34281656 113.1466791 130.3125 101.0625 C130.32861328 99.78181641 130.34472656 98.50113281 130.36132812 97.18164062 C130.36549986 88.99252676 129.33051615 81.83540757 127 74 C126.60153721 72.41732635 126.20526042 70.8340984 125.8125 69.25 C122.17922066 57.49861213 115.75201275 46.47149802 108 37 C107.25105469 36.07574219 106.50210938 35.15148437 105.73046875 34.19921875 C96.3936872 23.29373723 85.09701447 16.71326801 72.3359375 10.62890625 C69 9 69 9 66 7 C64.12906601 6.38631803 64.12906601 6.38631803 62.0859375 5.96484375 C61.32410156 5.79533203 60.56226563 5.62582031 59.77734375 5.45117188 C58.98457031 5.28166016 58.19179688 5.11214844 57.375 4.9375 C56.60542969 4.76412109 55.83585938 4.59074219 55.04296875 4.41210938 C37.2379005 0.52004672 20.49202068 1.1809575 3 6 C1.14894024 6.4302591 -0.70466045 6.8500283 -2.5625 7.25 C-4.2640625 7.62125 -4.2640625 7.62125 -6 8 C-5 6 -5 6 -2.93359375 5.1484375 C-2.10988281 4.89320313 -1.28617188 4.63796875 -0.4375 4.375 C0.38878906 4.11460937 1.21507812 3.85421875 2.06640625 3.5859375 C2.70449219 3.39257812 3.34257813 3.19921875 4 3 C2.68 2.01 1.36 1.02 0 0 Z " fill="#4D9CEA" transform="translate(782,320)"/>
<path d="M0 0 C2.54627164 1.97738198 4.98945298 4.02729272 7.41015625 6.15625 C8.16039062 6.81109375 8.910625 7.4659375 9.68359375 8.140625 C20.68619857 18.40972283 27.58276877 31.05772099 32.41015625 45.15625 C32.73757813 46.10757813 33.065 47.05890625 33.40234375 48.0390625 C38.93155357 65.25860164 37.77352817 85.90977348 31.91015625 102.84375 C31.55630859 103.88031738 31.20246094 104.91688477 30.83789062 105.98486328 C26.09664525 119.41769988 19.96333127 131.49866169 10.41015625 142.15625 C9.68957031 142.99542969 8.96898437 143.83460938 8.2265625 144.69921875 C-9.27255734 164.74587076 -32.24434003 177.48491448 -58.58984375 181.15625 C-59.40582031 181.28644531 -60.22179687 181.41664063 -61.0625 181.55078125 C-78.15772293 183.94730783 -95.08043196 181.74507983 -110.58984375 174.15625 C-111.6365625 173.66382813 -112.68328125 173.17140625 -113.76171875 172.6640625 C-133.66001538 162.71491419 -147.68832152 145.85694156 -155.40234375 125.09375 C-156.15686597 122.78939836 -156.88724358 120.47695965 -157.58984375 118.15625 C-158.069375 116.65578125 -158.069375 116.65578125 -158.55859375 115.125 C-162.80264863 99.87783988 -161.34959308 83.34301037 -157.58984375 68.15625 C-157.34621094 67.09792969 -157.10257813 66.03960937 -156.8515625 64.94921875 C-149.58098156 37.55532372 -128.549129 12.76999629 -104.58984375 -1.84375 C-72.03252557 -20.45924823 -31.54074175 -22.45434405 0 0 Z M-121.79296875 35.79296875 C-137.27618694 55.51563955 -144.76105948 77.80954484 -142.1953125 103.03515625 C-140.36287559 116.24653987 -134.56665396 129.20678315 -125.58984375 139.15625 C-124.82285156 140.02636719 -124.05585937 140.89648438 -123.265625 141.79296875 C-111.21778999 154.68503162 -94.76256195 163.27720219 -77 164.37890625 C-52.04240904 164.94333554 -29.30677458 156.97129915 -10.58984375 140.15625 C-9.63851562 139.31126953 -9.63851562 139.31126953 -8.66796875 138.44921875 C8.25925358 122.49259403 17.22339351 99.98507748 18.59765625 77.0234375 C19.01513078 57.03684437 11.85008757 38.90681292 -1.58984375 24.15625 C-17.30637504 8.46474503 -35.77993437 1.71512645 -57.83374023 1.71923828 C-82.6960641 2.34397792 -106.1875206 17.11623559 -121.79296875 35.79296875 Z " fill="#182C4E" transform="translate(865.58984375,348.84375)"/>
<path d="M0 0 C4.672879 0.53782192 8.03865881 2.63717272 11.875 5.1875 C12.49705322 5.59677734 13.11910645 6.00605469 13.76000977 6.42773438 C28.20201337 16.05194772 38.51569313 29.89647967 42.5625 47.01953125 C44.51712092 60.33538629 42.99231734 70.48398823 35.25 81.625 C23.71056331 96.6516291 6.24621427 106.77229466 -12 112 C-15.9375 112 -15.9375 112 -17.77734375 111.875 C-20.2081551 111.92651547 -20.2081551 111.92651547 -23.25 112.9609375 C-31.96227399 115.37496342 -41.60430486 115.75639286 -49.78295898 111.54101562 C-59.39552016 105.91775306 -67.52839642 98.38292801 -72 88 C-72.15625 85.19921875 -72.15625 85.19921875 -72 83 C-72.66 83 -73.32 83 -74 83 C-73.56134568 103.77028199 -69.14207938 123.78125186 -54 139 C-52.65407903 140.65651812 -51.3140151 142.31806068 -50 144 C-54.5121257 144.45121257 -57.97134494 143.83894499 -61.91796875 141.7109375 C-66.58012793 137.87974478 -69.21234658 132.25227405 -72 127 C-72.74636719 125.61167969 -72.74636719 125.61167969 -73.5078125 124.1953125 C-80.9225212 109.23269674 -83.25632265 89.47283565 -78 73.4375 C-75.24804199 66.87211447 -71.70423584 60.37345768 -67 55 C-66.01 55 -65.02 55 -64 55 C-63.97421875 55.59167969 -63.9484375 56.18335938 -63.921875 56.79296875 C-63.54597247 62.02997449 -63.03386383 65.29320621 -59 69 C-55.55908787 71.29394142 -53.6527797 72.01165678 -49.5 71.9375 C-44.19837445 70.51742173 -41.08747111 68.41975395 -37.75 64.0625 C-34.60997389 58.5674543 -33.78705249 55.35232611 -34.41796875 49.0859375 C-35.11710361 46.58031322 -35.94069783 45.56664615 -38 44 C-41.59585314 43.69396995 -44.53896428 44.10269444 -48 45 C-48.33 44.67 -48.66 44.34 -49 44 C-52.8822667 43.85349937 -56.2644843 43.96098239 -60 45 C-59.0919838 43.86800647 -58.17316174 42.74467637 -57.25 41.625 C-56.73953125 40.99851562 -56.2290625 40.37203125 -55.703125 39.7265625 C-53.91800519 37.91687682 -52.32050356 36.99882545 -50 36 C-50 35.34 -50 34.68 -50 34 C-66.21882463 36.01739881 -81.76272013 39.6212251 -92.50390625 52.88671875 C-98.04128292 60.70844402 -101.14656953 67.79602038 -101.55859375 77.37890625 C-102.05878645 80.34907707 -103.02893678 81.76612835 -105 84 C-107.1991254 81.8008746 -106.24875206 76.42444363 -106.25317383 73.37036133 C-106.16837665 67.28328071 -105.91791743 60.16848651 -101.58984375 55.46875 C-101.06519531 54.9840625 -100.54054688 54.499375 -100 54 C-98.95234843 52.77593042 -97.91112595 51.54634081 -96.875 50.3125 C-88.29605358 40.61456057 -79.97977179 35.53658645 -68 31 C-67.08863281 30.64808594 -66.17726563 30.29617188 -65.23828125 29.93359375 C-59.30930166 27.90500073 -53.43663483 27.50429861 -47.19921875 27.2109375 C-44.3693851 27.02435506 -41.75948923 26.63162793 -39 26 C-40.0204295 23.1582225 -40.62507711 22.18194788 -43.390625 20.83984375 C-44.33421875 20.54207031 -45.2778125 20.24429687 -46.25 19.9375 C-50.39277912 18.56020287 -54.16456948 17.07320569 -58 15 C-58 14.67 -58 14.34 -58 14 C-40.42517257 12.40228842 -21.03024069 22.47667147 -7.46484375 32.94140625 C0.00095268 39.17670691 5.23711494 44.94260329 9 54 C9.44437553 37.16310478 9.05589906 21.58302814 2 6 C1.3127513 4.00697876 0.63484067 2.01032877 0 0 Z " fill="#172C52" transform="translate(835,362)"/>
<path d="M0 0 C55.76923077 0 55.76923077 0 67.8125 10.4375 C73.54374606 17.15124539 75.51167234 22.72606126 76.3125 31.375 C75.51439359 40.6330343 73.01857801 48.24350317 66.125 54.6875 C58.94594595 60 58.94594595 60 55 60 C56.39512374 61.95884191 57.7910188 63.91712596 59.1875 65.875 C59.62368652 66.48690186 60.05987305 67.09880371 60.50927734 67.72924805 C63.17657946 71.46523744 65.85953298 75.18922289 68.55859375 78.90234375 C69.15067627 79.71783691 69.74275879 80.53333008 70.3527832 81.37353516 C71.5277336 82.99052847 72.70463394 84.60610682 73.88354492 86.22021484 C74.41955322 86.95836426 74.95556152 87.69651367 75.5078125 88.45703125 C75.98879395 89.11678955 76.46977539 89.77654785 76.96533203 90.45629883 C78 92 78 92 78 93 C71.97928618 94.09467524 65.90885014 95.02452178 60 93 C53.32188775 87.69175693 48.88275276 78.97610106 45.234375 71.390625 C43.36885656 67.96748921 42.27803998 66.16440448 39 64 C31.37283419 62.40294483 23.77401478 62.86748838 16 63 C16 72.9 16 82.8 16 93 C10.72 93 5.44 93 0 93 C0 62.31 0 31.62 0 0 Z " fill="#182D4D" transform="translate(451,620)"/>
<path d="M0 0 C7.6420299 6.25256992 12.04039567 14.87029368 13.1015625 24.59765625 C13.51569238 34.43869006 11.45003059 43.85829255 5.4375 51.875 C-3.72994067 60.40285179 -12.40270019 62.01833473 -24.54296875 61.76171875 C-30.17248443 61.45250284 -34.84381994 59.98350953 -39.25 56.375 C-40.24 55.055 -41.23 53.735 -42.25 52.375 C-42.58 63.925 -42.91 75.475 -43.25 87.375 C-48.2 87.375 -53.15 87.375 -58.25 87.375 C-58.25 57.015 -58.25 26.655 -58.25 -4.625 C-53.3 -4.625 -48.35 -4.625 -43.25 -4.625 C-42.92 -2.315 -42.59 -0.005 -42.25 2.375 C-41.50556641 1.76011719 -41.50556641 1.76011719 -40.74609375 1.1328125 C-29.03247609 -8.15806451 -12.48435355 -8.49596839 0 0 Z " fill="#182D4E" transform="translate(680.25,652.625)"/>
<path d="M0 0 C1.175625 0.53625 2.35125 1.0725 3.5625 1.625 C9.89579461 5.46336037 15.3963731 12.10804644 18 19 C20.10906589 29.6828772 20.41047295 39.68762783 14.91015625 49.3359375 C10.20470812 55.89854614 3.87660264 61.47274734 -4.07421875 63.5390625 C-16.43792122 65.48688211 -28.48712843 65.42886873 -39 58 C-42.36823979 55.51152434 -44.87415028 53.17923162 -47.1875 49.6875 C-47.67605469 48.96949219 -48.16460938 48.25148438 -48.66796875 47.51171875 C-53.0707891 39.20962642 -53.27612587 29.23503111 -51.41796875 20.15625 C-48.47673168 11.66829643 -41.94627138 4.15764664 -34 0 C-23.15562038 -4.28485244 -10.69523083 -4.93956444 0 0 Z " fill="#172C4D" transform="translate(756,650)"/>
<path d="M0 0 C0.99 0.495 0.99 0.495 2 1 C2.28121831 6.53783756 1.44738496 10.80510258 -0.4375 16 C-0.70336914 16.73621582 -0.96923828 17.47243164 -1.24316406 18.23095703 C-5.94784909 30.65335017 -13.12860267 42.02430602 -23 51 C-23.66 51 -24.32 51 -25 51 C-25.33 51.99 -25.66 52.98 -26 54 C-28.48326346 56.06143347 -31.30285814 57.64598686 -34.0625 59.3125 C-35.27184204 60.04617798 -35.27184204 60.04617798 -36.50561523 60.79467773 C-50.55423703 69.07919827 -64.75276183 73.39254145 -81.0625 73.125 C-82.64708008 73.11146484 -82.64708008 73.11146484 -84.26367188 73.09765625 C-86.84269253 73.0743167 -89.4212199 73.04157775 -92 73 C-92 72.01 -92 71.02 -92 70 C-93.74000879 68.16418149 -93.74000879 68.16418149 -96 66.25 C-105.42899922 57.13282595 -113.61130682 41.06223281 -114.07641602 27.82519531 C-114.09831837 25.27847977 -114.08718817 22.73417952 -114.0625 20.1875 C-114.05798828 19.30384766 -114.05347656 18.42019531 -114.04882812 17.50976562 C-114.03709866 15.33981441 -114.01916495 13.16989828 -114 11 C-113.34 11 -112.68 11 -112 11 C-111.86464844 11.54527344 -111.72929688 12.09054687 -111.58984375 12.65234375 C-108.89774945 22.08273396 -102.9140262 29.32254642 -95 35 C-94.24460937 35.56074219 -93.48921875 36.12148438 -92.7109375 36.69921875 C-84.69737109 41.8923003 -76.27765808 42.23702108 -67 41 C-65.83984375 40.6596875 -64.6796875 40.319375 -63.484375 39.96875 C-60.55335142 39.15384658 -58.91782901 38.92318394 -55.99609375 39.02734375 C-41.78932529 38.93013224 -22.106928 27.08466586 -12.15234375 17.40234375 C-7.4167391 12.11668702 -3.01033679 6.45717242 0 0 Z " fill="#2C9FBF" transform="translate(875,434)"/>
<path d="M0 0 C6.14631188 5.00165461 9.27450662 10.94851987 11.75 18.375 C11.75 22.995 11.75 27.615 11.75 32.375 C-5.41 32.375 -22.57 32.375 -40.25 32.375 C-37.31532284 40.20080576 -36.08726541 43.05665215 -29.25 47.1875 C-22.98072232 49.55043037 -15.54387624 49.58899138 -9.29296875 47.28515625 C-6.88204689 46.06734067 -4.57625137 44.74470399 -2.25 43.375 C-1.26 43.045 -0.27 42.715 0.75 42.375 C3.06 45.015 5.37 47.655 7.75 50.375 C5.84094637 54.19310726 5.42547909 54.9518202 2.0625 57 C1.41925781 57.40476562 0.77601563 57.80953125 0.11328125 58.2265625 C-6.1750767 61.28239264 -12.20386639 61.76291888 -19.0625 61.75 C-19.9488916 61.74838867 -20.8352832 61.74677734 -21.74853516 61.74511719 C-28.27391406 61.62265377 -33.56426921 60.75602099 -39.25 57.375 C-40.3225 56.776875 -41.395 56.17875 -42.5 55.5625 C-49.07208584 50.33470444 -54.49776448 43.85568238 -55.49365234 35.27587891 C-56.22094513 25.47066826 -56.29438471 16.57809354 -50.25 8.375 C-49.80398438 7.72402344 -49.35796875 7.07304688 -48.8984375 6.40234375 C-44.17262085 0.18485872 -37.17378095 -3.76205534 -29.5390625 -5.34375 C-19.01319237 -6.63703097 -8.95222557 -6.0922518 0 0 Z " fill="#7B44DD" transform="translate(917.25,652.625)"/>
<path d="M0 0 C5.65720626 5.15624415 8.97342343 12.12025621 10.80859375 19.4609375 C10.80859375 23.4209375 10.80859375 27.3809375 10.80859375 31.4609375 C-6.68140625 31.4609375 -24.17140625 31.4609375 -42.19140625 31.4609375 C-37.7369916 41.10262974 -37.7369916 41.10262974 -30.19140625 46.4609375 C-23.92901251 48.54840208 -15.50852699 48.74643415 -9.30859375 46.34375 C-6.96244307 45.01576394 -6.96244307 45.01576394 -4.92578125 43.5546875 C-3.19140625 42.4609375 -3.19140625 42.4609375 -0.19140625 42.4609375 C1.6328125 43.921875 1.6328125 43.921875 3.49609375 45.8359375 C4.11871094 46.46242188 4.74132812 47.08890625 5.3828125 47.734375 C6.80859375 49.4609375 6.80859375 49.4609375 6.80859375 51.4609375 C-3.66726375 60.35179529 -14.94460033 61.5425722 -28.19140625 60.4609375 C-37.48953013 59.12468018 -43.46828351 55.26867667 -49.94140625 48.6484375 C-56.90028189 38.79003035 -57.42045362 29.29600527 -56.19140625 17.4609375 C-54.50023072 9.57583161 -48.68554799 2.9270076 -42.3984375 -1.921875 C-29.66079082 -9.79181688 -12.05179731 -8.46418563 0 0 Z " fill="#162C4D" transform="translate(595.19140625,653.5390625)"/>
<path d="M0 0 C0 0.66 0 1.32 0 2 C-1.75 3.7265625 -1.75 3.7265625 -4 5.625 C-4.7425 6.25664062 -5.485 6.88828125 -6.25 7.5390625 C-6.8275 8.02117187 -7.405 8.50328125 -8 9 C-6.20821221 9 -4.41648063 8.97067557 -2.625 8.9375 C0.2428941 8.98694645 2.29153531 9.27079797 5 10 C5.33 9.67 5.66 9.34 6 9 C9.42389938 8.61956674 11.35313861 8.59789697 14.3125 10.4375 C16.81030023 14.2304559 17.40810911 17.48265438 17 22 C14.8743266 28.57203609 11.6766067 33.13507629 6 37 C5.0409375 37.680625 5.0409375 37.680625 4.0625 38.375 C0.76076934 39.37552444 -1.67659263 38.80220178 -5 38 C-8.75292586 35.90702212 -12.09246268 33.92104893 -14 30 C-14.23534378 26.98236972 -14.1742084 24.01961234 -14 21 C-14.99 21 -15.98 21 -17 21 C-17.27070312 21.5671875 -17.54140625 22.134375 -17.8203125 22.71875 C-19.0431028 25.08335112 -20.43506104 27.26175292 -21.875 29.5 C-30.36202477 43.87385813 -31.36350377 60.16907896 -27.5 76.3125 C-24.57566467 86.5633959 -19.55951966 95.94196641 -14 105 C-16.97 104.505 -16.97 104.505 -20 104 C-20 103.34 -20 102.68 -20 102 C-21.2065625 101.7215625 -21.2065625 101.7215625 -22.4375 101.4375 C-29.29174318 98.67175275 -35.07185771 93.44689411 -40 88 C-40.53109375 87.42378906 -41.0621875 86.84757812 -41.609375 86.25390625 C-49.37119425 77.16983018 -55.47080493 64.06123765 -56 52 C-55 49 -55 49 -53 46 C-52.68921762 43.56229256 -52.68921762 43.56229256 -52.625 40.875 C-51.65461215 28.75310585 -44.36592543 18.40724502 -35.25 10.625 C-24.80320781 2.79391768 -12.87109848 -0.4086063 0 0 Z " fill="#2DBACD" transform="translate(785,396)"/>
<path d="M0 0 C5.81355074 4.95562869 8.00516171 10.5415972 9 18 C9.13153057 21.33145971 9.11657183 24.65858021 9.09765625 27.9921875 C9.0962413 28.93812775 9.09482635 29.88406799 9.09336853 30.8586731 C9.08779484 33.86414829 9.0752472 36.86954753 9.0625 39.875 C9.0574816 41.91926975 9.05291929 43.96354068 9.04882812 46.0078125 C9.03783403 51.00523736 9.02058757 56.00260583 9 61 C4.05 61 -0.9 61 -6 61 C-6.029729 59.2828479 -6.029729 59.2828479 -6.06005859 57.53100586 C-6.13645228 53.26109792 -6.22511637 48.99151583 -6.31738281 44.72192383 C-6.35553358 42.87823954 -6.3904101 41.03448434 -6.421875 39.19067383 C-6.46782895 36.53180699 -6.5257716 33.87342247 -6.5859375 31.21484375 C-6.59748871 30.39789536 -6.60903992 29.58094696 -6.62094116 28.73924255 C-6.77577031 22.6591185 -8.07781239 17.76656283 -10 12 C-16.3362885 8.77425313 -23.1694413 8.27463396 -30 10 C-34.89292959 12.44646479 -37.4046839 15.21847834 -40 20 C-40.58077619 23.18710804 -40.60478635 26.32092912 -40.609375 29.5546875 C-40.62591125 30.45623566 -40.64244751 31.35778381 -40.65948486 32.28665161 C-40.70784103 35.14950457 -40.72930816 38.0118268 -40.75 40.875 C-40.77817006 42.82294319 -40.80809893 44.77086179 -40.83984375 46.71875 C-40.91359666 51.47912295 -40.96324688 56.23920343 -41 61 C-46.28 61 -51.56 61 -57 61 C-57 39.55 -57 18.1 -57 -4 C-52.05 -4 -47.1 -4 -42 -4 C-41.67 -1.36 -41.34 1.28 -41 4 C-40.59910156 3.60167969 -40.19820312 3.20335937 -39.78515625 2.79296875 C-28.57390053 -7.65561652 -12.9553994 -7.74993158 0 0 Z " fill="#7D63E6" transform="translate(1002,652)"/>
<path d="M0 0 C0.7425 0.598125 1.485 1.19625 2.25 1.8125 C0.6 5.1125 -1.05 8.4125 -2.75 11.8125 C-12.375 8.9375 -12.375 8.9375 -15.75 7.8125 C-18.01763574 7.66601918 -20.29032366 7.5915374 -22.5625 7.5625 C-23.76519531 7.53671875 -24.96789063 7.5109375 -26.20703125 7.484375 C-30.03988045 7.8393467 -32.44715027 8.89047413 -35.75 10.8125 C-35.75 13.1225 -35.75 15.4325 -35.75 17.8125 C-29.84402648 21.2302191 -23.89616947 22.07779551 -17.26953125 23.18554688 C-9.0345159 24.67884632 -2.21652494 27.18640916 3.25 33.8125 C4.94071481 39.03834576 5.59651188 45.08220255 3.12109375 50.1015625 C-1.25163521 56.19826554 -6.46396668 59.91668538 -13.75 61.8125 C-17.64822278 62.15280331 -21.52616208 62.18267417 -25.4375 62.1875 C-26.46294922 62.21199219 -27.48839844 62.23648438 -28.54492188 62.26171875 C-38.08002645 62.29785939 -45.68429645 59.85074817 -53.75 54.8125 C-52.30049545 51.0214881 -50.59827434 47.4250362 -48.75 43.8125 C-47.96625 44.080625 -47.1825 44.34875 -46.375 44.625 C-34.18006865 48.6198913 -25.19803296 51.55460779 -12.75 46.8125 C-12.42 44.5025 -12.09 42.1925 -11.75 39.8125 C-17.65597352 36.3947809 -23.60383053 35.54720449 -30.23046875 34.43945312 C-39.13482464 32.82477857 -45.39946581 30.27082038 -50.75 22.8125 C-52.75517853 18.80214294 -52.37209935 14.1613266 -51.75 9.8125 C-50.19709657 6.65979336 -48.20688872 4.30482461 -45.75 1.8125 C-44.6671875 0.6678125 -44.6671875 0.6678125 -43.5625 -0.5 C-31.42452004 -7.78278798 -11.94753582 -7.84405973 0 0 Z " fill="#7E94F2" transform="translate(1077.75,652.1875)"/>
<path d="M0 0 C5.28 0 10.56 0 16 0 C16 26.07 16 52.14 16 79 C31.51 79 47.02 79 63 79 C63 83.29 63 87.58 63 92 C42.21 92 21.42 92 0 92 C0 61.64 0 31.28 0 0 Z " fill="#7932D7" transform="translate(792,621)"/>
<path d="M0 0 C-0.66 0.33 -1.32 0.66 -2 1 C-1.60167969 1.70382812 -1.20335937 2.40765625 -0.79296875 3.1328125 C3.38738805 10.92393977 5.57831091 18.29598982 7 27 C7.18820312 28.03640625 7.37640625 29.0728125 7.5703125 30.140625 C8.17581951 35.57917884 8.10467847 40.97052192 8.0625 46.4375 C8.05798828 47.55060547 8.05347656 48.66371094 8.04882812 49.81054688 C8.03711193 52.54042101 8.02070699 55.27018174 8 58 C6.22287627 55.33431441 4.86647456 52.73294911 3.4375 49.875 C-2.06608947 39.79837966 -10.12938874 33.55945771 -20 28 C-21.06089844 27.401875 -22.12179687 26.80375 -23.21484375 26.1875 C-31.00148912 22.04889352 -38.70285659 19.33857549 -47.1875 17.04296875 C-51 16 -51 16 -53.9140625 14.87109375 C-58.11321811 13.68576248 -62.03775698 13.78507311 -66.375 13.875 C-67.62216797 13.88853516 -67.62216797 13.88853516 -68.89453125 13.90234375 C-70.92981337 13.9257378 -72.96494564 13.96160275 -75 14 C-51.77583651 -4.5950228 -28.21128418 -7.63203823 0 0 Z " fill="#AA30C1" transform="translate(837,361)"/>
<path d="M0 0 C15.15913214 6.76746971 23.56473944 19.14413253 30 34 C30.54140625 35.21429688 30.54140625 35.21429688 31.09375 36.453125 C34.78013248 47.91296617 26.08701755 63.98352739 21 74 C20.34 74 19.68 74 19 74 C18.79375 74.70125 18.5875 75.4025 18.375 76.125 C15.23037416 82.70012675 10.61238839 85.31021489 4 88 C2.52596012 88.99801966 1.0684394 90.02071331 -0.375 91.0625 C-4.8356258 94.15653132 -8.66552767 95.15325836 -14 96 C-12.53419474 92.82166979 -10.71476626 90.17656437 -8.625 87.375 C-3.43794327 80.00505689 -0.86049339 73.34075618 -0.2734375 64.3671875 C-0.00088022 62.00762015 0.54793914 60.19307578 1.4375 58 C7.97500936 41.78441306 5.24059453 24.58934571 1.45751953 8.08007812 C0.86849479 5.40212146 0.41521747 2.70984034 0 0 Z " fill="#7329B2" transform="translate(845,367)"/>
<path d="M0 0 C1 2 1 2 0.34765625 4.84375 C-1.15907613 8.3725609 -2.71227884 9.96647008 -5.5625 12.5 C-15.86199468 22.47252659 -21.24227885 33.65376088 -25.4140625 47.16699219 C-25.89611854 48.67502417 -26.45383631 50.15865785 -27.03125 51.6328125 C-32.68500539 66.65714395 -29.14007172 85.03142634 -22.89379883 99.21044922 C-20.6241323 104.08298738 -17.9392626 108.24196264 -14.3828125 112.30078125 C-13 114 -13 114 -12 117 C-10.68977963 117.71101674 -9.35140557 118.37077413 -8 119 C-5.72365181 120.72660399 -3.52460472 122.53110708 -1.31640625 124.34375 C1.04932241 126.03526594 3.2667575 127.0358933 6 128 C6 128.66 6 129.32 6 130 C6.825 130.0825 7.65 130.165 8.5 130.25 C12.14460884 131.03098761 14.82801651 132.29160741 18.0703125 134.0625 C29.24656846 139.49225998 47.20016574 136.87111718 58.59375 133.25390625 C59.7178125 132.84011719 60.841875 132.42632812 62 132 C63.74796875 131.36384766 63.74796875 131.36384766 65.53125 130.71484375 C86.32039584 122.45897721 102.8507806 107.75585307 111.88085938 86.97265625 C114.9572885 79.46155115 117.89174461 72.23059512 117.015625 63.98046875 C116.9962577 61.52566338 117.77585085 60.09517835 119 58 C119.66 58 120.32 58 121 58 C121 58.66 121 59.32 121 60 C121.99 59.67 122.98 59.34 124 59 C123.92511889 82.62499077 112.35648541 102.1531884 96.33984375 118.7578125 C79.26266888 135.20622541 55.89441385 143.28501681 32.40942383 143.31518555 C13.87626981 142.91687503 -2.02508142 134.97491858 -15 122 C-15.62132812 121.46117187 -16.24265625 120.92234375 -16.8828125 120.3671875 C-29.42343699 109.17622663 -35.11673891 90.98548758 -36.22265625 74.7265625 C-36.90277001 48.88223967 -26.61615199 26.93879222 -9.24926758 8.26098633 C-6.35381854 5.23315165 -3.32966783 2.53978312 0 0 Z " fill="#95DAF3" transform="translate(759,370)"/>
<path d="M0 0 C6.435 -0.061875 6.435 -0.061875 13 -0.125 C14.33675781 -0.14320801 15.67351562 -0.16141602 17.05078125 -0.18017578 C26.06748928 -0.22201979 33.75309233 -0.1771429 40.5859375 6.3125 C44.17165529 10.59158863 44.16115667 15.23802819 43.9375 20.5625 C43.29938312 25.97165351 42.0640135 28.38754356 38 32 C32.26656665 35.46394931 27.2146832 36.12897954 20.60546875 36.09765625 C19.52160889 36.09515869 18.43774902 36.09266113 17.32104492 36.09008789 C15.27494019 36.07643188 15.27494019 36.07643188 13.1875 36.0625 C6.6596875 36.0315625 6.6596875 36.0315625 0 36 C0 24.12 0 12.24 0 0 Z " fill="#FBF8F7" transform="translate(467,634)"/>
<path d="M0 0 C4.3740259 4.4739402 6.93951383 9.81889351 7.03125 16.16015625 C6.55490037 23.10295207 4.3669206 29.19945401 -0.9375 33.875 C-7.100157 38.15112935 -12.62523467 38.94081368 -20 38 C-26.68643191 35.94504355 -30.70128477 31.91626161 -33.96484375 25.81640625 C-36.29219941 19.48424237 -36.1455144 12.82150457 -33.4375 6.625 C-30.32063918 1.35706622 -26.22337797 -2.05300568 -20.625 -4.4375 C-13.14375869 -5.59838227 -6.22616449 -4.4996953 0 0 Z " fill="#F9F7F6" transform="translate(754,664)"/>
<path d="M0 0 C4.25899061 3.09106123 7.24291464 7.42015018 8.89453125 12.375 C9.75816119 20.59182204 9.02635099 26.75284357 3.89453125 33.375 C-0.59649422 37.75374983 -5.15866163 39.65941668 -11.41796875 39.75 C-17.55495944 39.61784408 -22.10904337 38.16503894 -26.63671875 33.94921875 C-31.97302415 27.94587518 -32.55357917 22.37114067 -32.421875 14.609375 C-31.86018843 8.86769001 -29.83269388 5.20092371 -25.91796875 1.0625 C-17.08148381 -4.23939096 -9.1489033 -4.90828737 0 0 Z " fill="#F9F7F6" transform="translate(669.10546875,662.625)"/>
<path d="M0 0 C0.99 0.495 0.99 0.495 2 1 C2.28121831 6.53783756 1.44738496 10.80510258 -0.4375 16 C-0.70336914 16.73621582 -0.96923828 17.47243164 -1.24316406 18.23095703 C-5.94784909 30.65335017 -13.12860267 42.02430602 -23 51 C-23.66 51 -24.32 51 -25 51 C-25.33 51.99 -25.66 52.98 -26 54 C-26.33 53.01 -26.66 52.02 -27 51 C-27.62003906 51.144375 -28.24007812 51.28875 -28.87890625 51.4375 C-45.72085523 54.96769018 -60.40551618 52.82395365 -76 46 C-76.99 45.34 -77.98 44.68 -79 44 C-79 43.34 -79 42.68 -79 42 C-77.38931641 41.80083984 -77.38931641 41.80083984 -75.74609375 41.59765625 C-74.30989167 41.41930436 -72.87369399 41.24091705 -71.4375 41.0625 C-70.38079102 40.93198242 -70.38079102 40.93198242 -69.30273438 40.79882812 C-64.86102227 40.2461727 -60.42954892 39.64439028 -56 39 C-54.85789062 38.87882812 -53.71578125 38.75765625 -52.5390625 38.6328125 C-48.52732445 37.91548185 -45.05601729 36.55627312 -41.375 34.875 C-40.68132324 34.56224121 -39.98764648 34.24948242 -39.27294922 33.92724609 C-22.55002782 26.28762434 -8.07381199 17.31832673 0 0 Z " fill="#4FACEC" transform="translate(875,434)"/>
<path d="M0 0 C4.53808783 -0.09124841 8.66290975 0.13279926 13.1015625 1.12890625 C13.1015625 1.45890625 13.1015625 1.78890625 13.1015625 2.12890625 C11.1215625 2.45890625 9.1415625 2.78890625 7.1015625 3.12890625 C11.17702667 5.23941448 15.15269806 7.20966895 19.4765625 8.75390625 C23.1015625 10.12890625 23.1015625 10.12890625 25.1015625 12.12890625 C24.1015625 14.12890625 24.1015625 14.12890625 21.92578125 15.23828125 C18.78502592 16.22872691 16.20307203 16.33175199 12.9140625 16.37890625 C-4.54996934 17.42454681 -20.48127094 25.04154807 -32.5859375 37.4453125 C-34.70412361 39.90341023 -36.33906691 42.29228804 -37.8984375 45.12890625 C-39.3638918 40.57808673 -37.80926997 37.36786182 -36.0234375 33.12890625 C-35.70608643 32.372146 -35.38873535 31.61538574 -35.06176758 30.83569336 C-31.94580923 23.73317444 -28.01372132 17.99051836 -22.8984375 12.12890625 C-22.09148438 11.17628906 -21.28453125 10.22367187 -20.453125 9.2421875 C-15.89377996 4.23262501 -12.34141958 0.99446497 -5.484375 0.2265625 C-3.65599407 0.15751488 -1.82787739 0.08129374 0 0 Z " fill="#6380E9" transform="translate(771.8984375,373.87109375)"/>
<path d="M0 0 C0.99 0 1.98 0 3 0 C3 0.66 3 1.32 3 2 C3.99 1.67 4.98 1.34 6 1 C5.92511889 24.62499077 -5.64351459 44.1531884 -21.66015625 60.7578125 C-39.56288898 78.00138718 -63.57631184 85.45306983 -88.0546875 85.16796875 C-92.86420581 84.96320708 -97.35837673 84.2496678 -102 83 C-101.34 81.35 -100.68 79.7 -100 78 C-99.20005615 78.02094727 -98.4001123 78.04189453 -97.57592773 78.06347656 C-76.41546212 78.83466508 -76.41546212 78.83466508 -56 74 C-54.26363281 73.36384766 -54.26363281 73.36384766 -52.4921875 72.71484375 C-31.68759807 64.50731891 -15.14226291 49.73984236 -6.11914062 28.97265625 C-3.04586578 21.46925232 -0.14296254 14.22012091 -0.88671875 5.98046875 C-1.01196919 3.79074548 -0.62501001 2.09119889 0 0 Z " fill="#68CFF0" transform="translate(877,428)"/>
<path d="M0 0 C2 1 2 1 2.9296875 3.328125 C3.24164062 4.29234375 3.55359375 5.2565625 3.875 6.25 C6.19026987 12.80569086 8.6207876 16.76366457 14.91796875 20.15234375 C18.79607839 21.73123642 22.87718641 22.36954963 27 23 C27 23.66 27 24.32 27 25 C26.21496094 25.15855469 25.42992187 25.31710937 24.62109375 25.48046875 C15.3371564 27.40755137 15.3371564 27.40755137 8 33 C5.99945282 36.55177361 4.45839439 40.19834271 3 44 C2.33372811 45.66682452 1.66718714 47.33354162 1 49 C-0.39461998 46.42531697 -1.480109 43.80119207 -2.5 41.0625 C-2.75910156 40.37027344 -3.01820313 39.67804688 -3.28515625 38.96484375 C-3.8679848 37.36286146 -4.40900477 35.74571872 -4.9375 34.125 C-6.81552322 30.36895357 -11.18607862 29.45772161 -14.9375 27.9375 C-15.77152344 27.59589844 -16.60554687 27.25429688 -17.46484375 26.90234375 C-19.96802878 26.01137959 -22.38552083 25.45367528 -25 25 C-25 24.34 -25 23.68 -25 23 C-23.2984375 22.6596875 -23.2984375 22.6596875 -21.5625 22.3125 C-15.50448095 20.78454493 -10.22542505 18.0497336 -5.625 13.8125 C-3.63475627 10.36784739 -2.62830127 6.94263495 -1.61328125 3.109375 C-1 1 -1 1 0 0 Z " fill="#5C90EE" transform="translate(923,257)"/>
<path d="M0 0 C3.61913911 2.41275941 6.64710469 5.06616135 8.8125 8.875 C9.3075 12.34 9.3075 12.34 9.8125 15.875 C-3.0575 15.875 -15.9275 15.875 -29.1875 15.875 C-26.78604015 6.26916058 -26.78604015 6.26916058 -22.1875 1.875 C-14.64517109 -2.36859605 -8.07957104 -2.85161331 0 0 Z " fill="#F3F2F2" transform="translate(582.1875,660.125)"/>
<path d="M0 0 C4.34971038 2.52985032 7.28136547 5.51634903 9.51953125 10.0859375 C9.51953125 12.0659375 9.51953125 14.0459375 9.51953125 16.0859375 C-3.02046875 16.0859375 -15.56046875 16.0859375 -28.48046875 16.0859375 C-27.30166249 7.83429366 -25.3380518 5.00264664 -18.91796875 0.1484375 C-12.81573182 -1.73770846 -6.07827272 -2.23986743 0 0 Z " fill="#F9F5F8" transform="translate(905.48046875,659.9140625)"/>
<path d="M0 0 C2.613751 1.62476414 3.66613838 3.00045089 4.640625 5.91796875 C5.74658176 11.70376107 4.36533695 15.69575834 1.53125 20.765625 C-0.65824031 23.96049351 -2.79472536 25.81768535 -6 28 C-6.639375 28.45375 -7.27875 28.9075 -7.9375 29.375 C-11.23923066 30.37552444 -13.67659263 29.80220178 -17 29 C-20.75292586 26.90702212 -24.09246268 24.92104893 -26 21 C-26.23534378 17.98236972 -26.1742084 15.01961234 -26 12 C-22.125 13.875 -22.125 13.875 -21 15 C-16.21186943 15.38037151 -16.21186943 15.38037151 -11.78515625 13.80859375 C-9.7718942 12.12052802 -9.7718942 12.12052802 -9.609375 9.51953125 C-9.65578125 8.62621094 -9.7021875 7.73289062 -9.75 6.8125 C-9.80414062 5.46091797 -9.80414062 5.46091797 -9.859375 4.08203125 C-9.90578125 3.39496094 -9.9521875 2.70789063 -10 2 C-6.44493789 0.08455705 -4.08352528 -0.51044066 0 0 Z " fill="#416CA9" transform="translate(797,405)"/>
<path d="M0 0 C4.44605824 0.50812094 6.78020735 1.91308768 10 5 C11.91950999 9.5001201 12.9097964 14.23726724 14 19 C14.34224609 20.46179688 14.34224609 20.46179688 14.69140625 21.953125 C15.92470646 28.12825053 16.19733032 34.22227623 16.25 40.5 C16.26401855 41.66740723 16.26401855 41.66740723 16.27832031 42.85839844 C16.2564676 46.70615677 16.18249369 49.74358084 14 53 C14 51.68 14 50.36 14 49 C13.34 49 12.68 49 12 49 C11.67 51.97 11.34 54.94 11 58 C10.01 58 9.02 58 8 58 C8.16081055 57.43047607 8.32162109 56.86095215 8.48730469 56.27416992 C12.08344341 40.32272603 8.63394858 20.65114601 2 6 C1.3127513 4.00697876 0.63484067 2.01032877 0 0 Z " fill="#26295D" transform="translate(835,362)"/>
<path d="M0 0 C0.33 0 0.66 0 1 0 C1.89547536 8.8143061 2.13331292 17.52601903 2.09765625 26.3815918 C2.095732 27.78073574 2.0942706 29.17988039 2.0932312 30.57902527 C2.090097 33.5647024 2.08387039 36.55035044 2.07516479 39.53601646 C2.06154313 44.25454356 2.05572867 48.97306136 2.05102539 53.69160461 C2.03997972 63.69024924 2.02039542 73.68887076 2 83.6875 C1.97796028 94.52208896 1.95742876 105.35666907 1.94658184 116.19127589 C1.94159158 120.88595107 1.93172275 125.58058338 1.91815186 130.27524126 C1.91072252 133.1826294 1.90738302 136.09001156 1.9051857 138.99740791 C1.90240539 140.99740468 1.89460373 142.99739246 1.88668823 144.99737549 C1.88661774 146.17621811 1.88654724 147.35506073 1.88647461 148.56962585 C1.884254 149.60027507 1.88203339 150.63092428 1.87974548 151.69280529 C1.73999392 153.96310816 1.73999392 153.96310816 3 155 C3.09498014 156.89913745 3.11884929 158.80186153 3.11523438 160.70336914 C3.11463013 161.926483 3.11402588 163.14959686 3.11340332 164.40977478 C3.1071329 165.76406993 3.10057336 167.11836377 3.09375 168.47265625 C3.08996369 169.87345843 3.08634509 171.27426106 3.08288574 172.67506409 C3.03378478 187.56274091 2.79659272 202.44778472 2.53643799 217.33300781 C2.47418679 220.92835325 2.41498766 224.5237491 2.35546875 228.11914062 C2.23982734 235.07947674 2.12103673 242.03975543 2 249 C1.67 249 1.34 249 1 249 C0.17230429 195.32018958 -0.13765119 141.65410801 -0.07202661 87.96829319 C-0.06046723 78.32955542 -0.05525832 68.69081654 -0.05032361 59.05207348 C-0.04011694 39.36804108 -0.02275934 19.68402173 0 0 Z " fill="#8A77D2" transform="translate(591,262)"/>
<path d="M0 0 C1.57504051 -0.00569504 1.57504051 -0.00569504 3.18190002 -0.01150513 C6.61970797 -0.01885819 10.05665323 0.00238896 13.49438477 0.02490234 C15.89429119 0.02728879 18.2941995 0.02819167 20.69410706 0.02767944 C25.70634775 0.03079786 30.71830045 0.04729692 35.73046875 0.07421875 C42.16227864 0.10832567 48.59377457 0.11584315 55.02566433 0.11432838 C59.97293608 0.11487126 64.9201389 0.12582311 69.86738777 0.14033127 C72.24011781 0.14670232 74.61285566 0.15063888 76.9855938 0.15211868 C80.29131372 0.15644108 83.59669604 0.17391568 86.90234375 0.1953125 C87.88572723 0.19440613 88.86911072 0.19349976 89.8822937 0.19256592 C91.22989525 0.20536087 91.22989525 0.20536087 92.60472107 0.21841431 C93.77573443 0.22344184 93.77573443 0.22344184 94.97040462 0.22857094 C96.99829102 0.48583984 96.99829102 0.48583984 99.99829102 2.48583984 C87.86997066 3.39695821 75.82572261 3.58062227 63.66659355 3.46930885 C60.54197769 3.44219951 57.41743718 3.42463165 54.29273987 3.40983582 C45.4228902 3.36751909 36.55319263 3.31905291 27.68359375 3.23901367 C22.22400253 3.19042923 16.76460596 3.16148832 11.30482674 3.14526939 C9.23761282 3.13540755 7.17041968 3.11825205 5.10333061 3.09348488 C2.21838406 3.05963049 -0.66566023 3.0508475 -3.55078125 3.04760742 C-4.39298218 3.03165527 -5.23518311 3.01570312 -6.10290527 2.99926758 C-12.00912896 3.02941264 -15.9419093 4.53421776 -21.00170898 7.48583984 C-22.33102287 8.16048554 -23.66335259 8.82931537 -25.00170898 9.48583984 C-19.61148734 0.66547716 -9.4391932 -0.10945698 0 0 Z " fill="#C45BE5" transform="translate(621.001708984375,243.51416015625)"/>
<path d="M0 0 C13.31055664 -1.2100506 26.60984599 4.61361307 38 11 C38 11.33 38 11.66 38 12 C25.21846165 14.81428367 13.06587132 15.34484704 0 15 C0 14.67 0 14.34 0 14 C0.95261719 13.93941406 1.90523437 13.87882812 2.88671875 13.81640625 C4.76810547 13.69072266 4.76810547 13.69072266 6.6875 13.5625 C7.92886719 13.48128906 9.17023437 13.40007812 10.44921875 13.31640625 C13.38180337 13.05508683 16.13441617 12.65201621 19 12 C17.9795705 9.1582225 17.37492289 8.18194788 14.609375 6.83984375 C13.66578125 6.54207031 12.7221875 6.24429687 11.75 5.9375 C7.60722088 4.56020287 3.83543052 3.07320569 0 1 C0 0.67 0 0.34 0 0 Z " fill="#233C70" transform="translate(777,376)"/>
<path d="M0 0 C2.67114888 4.00672331 2.81599109 7.2910514 2 12 C-0.72992076 15.39171974 -2.31362262 15.91716135 -6.625 16.4375 C-10 16 -10 16 -11.75 14.625 C-12.1625 14.08875 -12.575 13.5525 -13 13 C-13.99 12.34 -14.98 11.68 -16 11 C-12.86242673 3.50468607 -8.57054849 -1.31854592 0 0 Z " fill="#F4FCFB" transform="translate(786,405)"/>
<path d="M0 0 C0 0.66 0 1.32 0 2 C-0.56589844 2.18175781 -1.13179687 2.36351562 -1.71484375 2.55078125 C-2.81505859 2.92783203 -2.81505859 2.92783203 -3.9375 3.3125 C-4.66839844 3.55613281 -5.39929688 3.79976563 -6.15234375 4.05078125 C-8.35932024 4.91240441 -8.35932024 4.91240441 -9 8 C-11.08203125 8.921875 -11.08203125 8.921875 -13.8125 9.75 C-21.96914365 12.5183797 -29.18618343 16.87014848 -36.125 21.9375 C-39 24 -39 24 -41 24 C-40.8828125 20.78515625 -40.8828125 20.78515625 -40 17 C-37.90499637 15.05730376 -36.29198939 13.83247779 -33.875 12.4375 C-33.25407471 12.06036865 -32.63314941 11.6832373 -31.9934082 11.29467773 C-22.75981196 5.8682496 -10.88316906 0 0 0 Z " fill="#C397E0" transform="translate(800,352)"/>
<path d="M0 0 C-0.33 0.99 -0.66 1.98 -1 3 C-0.3611235 2.97003433 0.27775299 2.94006866 0.93598938 2.90919495 C19.96405147 2.04487894 38.94226085 1.87208895 57.98547363 1.93133545 C61.7279399 1.94181245 65.47041373 1.94618362 69.21289062 1.95117188 C76.47527991 1.96169989 83.73763364 1.97862199 91 2 C87.84632965 4.1024469 87.1323113 4.24885554 83.53913879 4.24050903 C82.16985985 4.24463303 82.16985985 4.24463303 80.7729187 4.24884033 C79.77382477 4.24164978 78.77473083 4.23445923 77.74536133 4.22705078 C76.16462578 4.22748886 76.16462578 4.22748886 74.55195618 4.22793579 C71.06189801 4.22654028 67.57205221 4.21096847 64.08203125 4.1953125 C61.66493344 4.19158316 59.24783412 4.18873582 56.83073425 4.18673706 C50.4635502 4.17909438 44.09645714 4.15944037 37.72930908 4.1373291 C31.23426545 4.11688438 24.73920715 4.10773828 18.24414062 4.09765625 C5.49605489 4.07619514 -7.25196772 4.04243498 -20 4 C-20 3.67 -20 3.34 -20 3 C-17.79344925 2.49219106 -15.58466395 1.99408635 -13.375 1.5 C-11.53035156 1.08234375 -11.53035156 1.08234375 -9.6484375 0.65625 C-6.32847772 0.05908379 -3.36091549 -0.12409534 0 0 Z " fill="#3240C9" transform="translate(826,538)"/>
<path d="M0 0 C-1.09117655 3.49176495 -2.68995427 5.98494246 -4.9375 8.8125 C-9.9756327 15.3989369 -11.31136239 21.24806982 -11.59375 29.484375 C-12.06497733 32.40235959 -13.07071471 33.80389866 -15 36 C-16.98155165 34.01844835 -16.24026162 30.26429254 -16.25 27.5625 C-16.20370272 14.5327103 -16.20370272 14.5327103 -13 9 C-11.08999653 7.13376744 -9.19020086 5.68317668 -6.9375 4.25390625 C-4.94400859 3.06451399 -4.94400859 3.06451399 -3.375 1.33984375 C-2 0 -2 0 0 0 Z " fill="#1D2E57" transform="translate(745,410)"/>
<path d="M0 0 C1 2 1 2 0.359375 4.82421875 C-1.18122305 8.42337454 -2.87324394 10.18419105 -5.75 12.8125 C-9.18058898 16.06071572 -11.84374428 19.06124366 -14.25 23.125 C-15.6171875 25.34765625 -15.6171875 25.34765625 -17 27 C-20.375 27.5625 -20.375 27.5625 -23 27 C-19.96610712 20.3487733 -15.89709793 15.4104342 -10.9375 10.125 C-10.01686768 9.14358032 -10.01686768 9.14358032 -9.07763672 8.14233398 C-6.21990976 5.1509054 -3.44926685 2.322449 0 0 Z " fill="#89C6F7" transform="translate(759,370)"/>
<path d="M0 0 C0 1.65 0 3.3 0 5 C-0.76183594 5.27972656 -1.52367187 5.55945313 -2.30859375 5.84765625 C-8.72516137 8.33898276 -13.86294003 11.01695533 -19.0625 15.546875 C-21.11073319 17.08304989 -22.54967807 17.41730149 -25 18 C-27.7295585 20.47906969 -27.7295585 20.47906969 -30 23 C-30.66 22.67 -31.32 22.34 -32 22 C-24.18079682 12.54655821 -13.36684202 0 0 0 Z " fill="#1C2F59" transform="translate(767,394)"/>
<path d="M0 0 C5.04017947 7.56026921 4.28008617 18.22396675 4 27 C0.25 28.125 0.25 28.125 -2 27 C-2.06058594 25.84242188 -2.12117187 24.68484375 -2.18359375 23.4921875 C-2.26805502 21.95311543 -2.35270018 20.41405345 -2.4375 18.875 C-2.47681641 18.11445313 -2.51613281 17.35390625 -2.55664062 16.5703125 C-2.74765828 13.16138203 -3.00861935 9.95526148 -3.65625 6.59375 C-3.7696875 5.7378125 -3.883125 4.881875 -4 4 C-2.0625 1.625 -2.0625 1.625 0 0 Z " fill="#B889E5" transform="translate(880,402)"/>
<path d="M0 0 C0.66 0.33 1.32 0.66 2 1 C2.79690262 18.84176416 2.79690262 18.84176416 -2 27 C-2.66 27.66 -3.32 28.32 -4 29 C-4.66 28.01 -5.32 27.02 -6 26 C-6.99 26.66 -7.98 27.32 -9 28 C-8.5875 26.7625 -8.175 25.525 -7.75 24.25 C-7.47800781 23.43273437 -7.20601562 22.61546875 -6.92578125 21.7734375 C-6.28043184 19.84011228 -5.63173464 17.90790271 -4.98046875 15.9765625 C-3.1989759 10.67878977 -1.47075096 5.39275351 0 0 Z " fill="#233461" transform="translate(876,411)"/>
<path d="M0 0 C0.66 0 1.32 0 2 0 C3.34921052 2.36714167 4.67914309 4.74210275 6 7.125 C6.3815625 7.79015625 6.763125 8.4553125 7.15625 9.140625 C9.42430387 13.27172312 10.48272839 16.15763089 10 21 C8.02 21.99 8.02 21.99 6 23 C4.79061646 20.48773942 3.60792526 17.96784793 2.4375 15.4375 C2.09525391 14.73302734 1.75300781 14.02855469 1.40039062 13.30273438 C-0.86216079 8.3434045 -1.27897354 5.31857303 0 0 Z " fill="#C690E9" transform="translate(870,383)"/>
<path d="M0 0 C0.33 0 0.66 0 1 0 C1.16845232 5.97719235 1.32891823 11.95452767 1.48217773 17.93212891 C1.53535243 19.96311119 1.59066042 21.99403884 1.64819336 24.02490234 C1.73079369 26.95398176 1.80556992 29.88317573 1.87890625 32.8125 C1.90594131 33.71178223 1.93297638 34.61106445 1.96083069 35.53759766 C2.08405134 40.81246678 1.78764266 45.78087285 1 51 C1.99 51 2.98 51 4 51 C3.6889315 53.06271639 3.37608484 55.12516466 3.0625 57.1875 C2.88847656 58.33605469 2.71445312 59.48460937 2.53515625 60.66796875 C2.08620687 63.46325212 1.57917838 66.22933586 1 69 C0.67 69 0.34 69 0 69 C0 46.23 0 23.46 0 0 Z " fill="#2036A5" transform="translate(593,448)"/>
<path d="M0 0 C1.77174819 0.08723378 3.54247377 0.19541655 5.3125 0.3125 C6.29863281 0.37050781 7.28476562 0.42851562 8.30078125 0.48828125 C11.24384457 1.04622813 12.18182999 1.68540132 14 4 C3.65849461 8.06878901 -7.09578091 7.29610399 -18 7 C-18 6.67 -18 6.34 -18 6 C-17.04738281 5.93941406 -16.09476563 5.87882812 -15.11328125 5.81640625 C-13.23189453 5.69072266 -13.23189453 5.69072266 -11.3125 5.5625 C-10.07113281 5.48128906 -8.82976563 5.40007812 -7.55078125 5.31640625 C-4.61819663 5.05508683 -1.86558383 4.65201621 1 4 C0.67 2.68 0.34 1.36 0 0 Z " fill="#32619A" transform="translate(795,384)"/>
<path d="M0 0 C-1.2065625 0.86625 -1.2065625 0.86625 -2.4375 1.75 C-5.13717776 3.65960582 -5.13717776 3.65960582 -5.3828125 5.9375 C-6.26476917 8.88479823 -7.87938862 9.62918063 -10.4375 11.25 C-11.24058594 11.77078125 -12.04367187 12.2915625 -12.87109375 12.828125 C-15 14 -15 14 -17 14 C-17.18312923 11.0088892 -17.23114355 9.66833623 -16 7 C-11.25791558 2.89916573 -6.45918287 -0.57755467 0 0 Z " fill="#C0A8EC" transform="translate(776,362)"/>
<path d="M0 0 C8.58 0 17.16 0 26 0 C26 0.33 26 0.66 26 1 C25.18547363 1.15819214 25.18547363 1.15819214 24.35449219 1.31958008 C14.16921125 3.305559 4.02705149 5.30981545 -6 8 C-5 6 -5 6 -2.93359375 5.1484375 C-2.10988281 4.89320313 -1.28617188 4.63796875 -0.4375 4.375 C0.38878906 4.11460937 1.21507812 3.85421875 2.06640625 3.5859375 C2.70449219 3.39257812 3.34257813 3.19921875 4 3 C2.68 2.01 1.36 1.02 0 0 Z " fill="#8D75EE" transform="translate(782,320)"/>
<path d="M0 0 C0.66 0.99 1.32 1.98 2 3 C2.66 3 3.32 3 4 3 C3.9127395 5.25071906 3.80455885 7.50063388 3.6875 9.75 C3.62949219 11.00296875 3.57148437 12.2559375 3.51171875 13.546875 C2.99544099 17.03076463 2.3746744 18.47889796 0 21 C-1.79330986 19.20669014 -1.13233187 16.80419106 -1.13671875 14.41992188 C-1.13285156 13.68322266 -1.12898437 12.94652344 -1.125 12.1875 C-1.12886719 11.46240234 -1.13273438 10.73730469 -1.13671875 9.99023438 C-1.13037891 6.52551359 -1.0945836 3.3098123 0 0 Z " fill="#1E3B63" transform="translate(730,425)"/>
<path d="M0 0 C9.24 0 18.48 0 28 0 C28 0.99 28 1.98 28 3 C29.299375 3.12375 30.59875 3.2475 31.9375 3.375 C34.15234375 3.5859375 34.15234375 3.5859375 36 4 C36.495 4.99 36.495 4.99 37 6 C36.35675781 5.87882812 35.71351563 5.75765625 35.05078125 5.6328125 C23.38781954 3.46992374 11.8479468 1.73686085 0 1 C0 0.67 0 0.34 0 0 Z " fill="#6BD0F8" transform="translate(808,320)"/>
<path d="M0 0 C0.66 0.66 1.32 1.32 2 2 C3.32 1.34 4.64 0.68 6 0 C6 3.96 6 7.92 6 12 C2 13 2 13 0 12 C0 8.04 0 4.08 0 0 Z " fill="#9FA1E2" transform="translate(878,417)"/>
<path d="M0 0 C0.99384397 3.25258026 1.04826731 6.03465371 0.87890625 9.421875 C0.83056641 10.44667969 0.78222656 11.47148437 0.73242188 12.52734375 C0.67634766 13.59082031 0.62027344 14.65429688 0.5625 15.75 C0.51029297 16.82894531 0.45808594 17.90789062 0.40429688 19.01953125 C0.27480531 21.67999422 0.13984639 24.34006452 0 27 C-0.66 26.67 -1.32 26.34 -2 26 C-3.22647332 18.15650528 -3.61701794 10.56027405 -1 3 C-0.67 2.01 -0.34 1.02 0 0 Z " fill="#1EBBC9" transform="translate(755,439)"/>
<path d="M0 0 C0.66 0.66 1.32 1.32 2 2 C1.27683594 2.60134766 1.27683594 2.60134766 0.5390625 3.21484375 C-4.46636041 7.71972437 -6.25814264 11.32328375 -7 18 C-8.98 18 -10.96 18 -13 18 C-9.58533511 11.05575361 -5.32801969 5.59243754 0 0 Z " fill="#82CCF3" transform="translate(749,379)"/>
<path d="M0 0 C3 1 3 1 4 3 C4.41334152 6.05872727 4.47189841 8.94622066 4 12 C1.24834465 15.41872332 -0.33823495 15.9214855 -4.6875 16.4375 C-5.780625 16.293125 -6.87375 16.14875 -8 16 C-8.66 15.01 -9.32 14.02 -10 13 C-7.0703125 13.04882812 -7.0703125 13.04882812 -4.140625 13.09765625 C-1.96707597 12.99849799 -0.08693463 12.59693851 2 12 C1.85831863 10.56208484 1.71148957 9.1246763 1.5625 7.6875 C1.48128906 6.88699219 1.40007813 6.08648437 1.31640625 5.26171875 C1.04734307 2.83912821 1.04734307 2.83912821 0 0 Z " fill="#B1DDE3" transform="translate(784,405)"/>
<path d="M0 0 C5.77807024 -0.2358396 10.51324804 0.13216954 16 2 C15.34 3.32 14.68 4.64 14 6 C8.65155992 5.46515599 4.64203897 3.53309233 0 1 C0 0.67 0 0.34 0 0 Z " fill="#214187" transform="translate(777,376)"/>
<path d="M0 0 C0 3 0 3 -1.28515625 4.47265625 C-2.16494141 5.25962891 -2.16494141 5.25962891 -3.0625 6.0625 C-6.875915 9.67439307 -9.66086399 13.66919849 -12.51953125 18.05859375 C-13.25236328 19.01958984 -13.25236328 19.01958984 -14 20 C-14.66 20 -15.32 20 -16 20 C-13.12286326 11.77960932 -6.88340048 5.16255036 0 0 Z " fill="#22B0BF" transform="translate(752,405)"/>
<path d="M0 0 C0.92683594 -0.00257813 1.85367188 -0.00515625 2.80859375 -0.0078125 C5.49115981 0.12155948 7.94818718 0.52717166 10.5625 1.125 C10.5625 1.455 10.5625 1.785 10.5625 2.125 C9.655 2.269375 8.7475 2.41375 7.8125 2.5625 C4.77585485 3.01600513 4.77585485 3.01600513 2.75 3.6875 C-0.16142241 4.26978448 -2.73825529 3.97601307 -5.6875 3.6875 C-6.76515625 3.58566406 -7.8428125 3.48382813 -8.953125 3.37890625 C-9.77296875 3.29511719 -10.5928125 3.21132813 -11.4375 3.125 C-8.08380142 -0.22869858 -4.58701942 -0.01272405 0 0 Z " fill="#4F5DC6" transform="translate(774.4375,373.875)"/>
<path d="M0 0 C3.96 0.33 7.92 0.66 12 1 C10.0625 3.5625 10.0625 3.5625 7 6 C3.89398005 6.14543237 1.02829521 5.6663569 -2 5 C-1.34 3.35 -0.68 1.7 0 0 Z " fill="#81D1EB" transform="translate(777,506)"/>
<path d="M0 0 C0 0.99 0 1.98 0 3 C-0.99 3.66 -1.98 4.32 -3 5 C-3.72965366 7.56282742 -3.72965366 7.56282742 -4 10 C-4.556875 10.061875 -5.11375 10.12375 -5.6875 10.1875 C-8.94987173 11.33373872 -10.68667874 13.49390197 -13 16 C-13.66 15.67 -14.32 15.34 -15 15 C-10.39863498 9.46398272 -5.53601728 4.60136502 0 0 Z " fill="#1F2B61" transform="translate(750,401)"/>
<path d="M0 0 C0.99 0 1.98 0 3 0 C3 0.66 3 1.32 3 2 C3.99 1.67 4.98 1.34 6 1 C6.28571429 8.42857143 6.28571429 8.42857143 4 12 C3.67 9.69 3.34 7.38 3 5 C2.34 6.65 1.68 8.3 1 10 C-1.56687367 6.1496895 -0.83288724 4.41430237 0 0 Z " fill="#8DBAF5" transform="translate(877,428)"/>
<path d="M0 0 C-0.61746094 0.23074219 -1.23492188 0.46148437 -1.87109375 0.69921875 C-7.25049561 2.7707388 -12.22762533 5.10637787 -17.1875 8.046875 C-19 9 -19 9 -21 9 C-19.54663682 5.19202609 -17.82091882 4.03932723 -14.1875 2.3125 C-12.90939453 1.68794922 -12.90939453 1.68794922 -11.60546875 1.05078125 C-7.44859151 -0.62568049 -4.3268848 -1.44229493 0 0 Z " fill="#D087ED" transform="translate(790,360)"/>
<path d="M0 0 C6.82774587 -0.3848625 12.73842938 0.05814139 19 3 C19.66 3.66 20.32 4.32 21 5 C18.36 5.33 15.72 5.66 13 6 C12.67 5.01 12.34 4.02 12 3 C6.06 2.01 6.06 2.01 0 1 C0 0.67 0 0.34 0 0 Z " fill="#234B80" transform="translate(794,383)"/>
<path d="M0 0 C-4.75846698 3.17231132 -8.65679336 3.12529405 -14.1875 3.0625 C-14.93708984 3.05798828 -15.68667969 3.05347656 -16.45898438 3.04882812 C-18.30602383 3.03706354 -20.15302213 3.01912865 -22 3 C-22 2.67 -22 2.34 -22 2 C-20.53626953 1.80083984 -20.53626953 1.80083984 -19.04296875 1.59765625 C-17.13451172 1.33275391 -17.13451172 1.33275391 -15.1875 1.0625 C-13.29064453 0.80146484 -13.29064453 0.80146484 -11.35546875 0.53515625 C-3.168125 -0.770625 -3.168125 -0.770625 0 0 Z " fill="#346DA3" transform="translate(820,474)"/>
<path d="M0 0 C1 2 1 2 0.375 4.875 C-1.18787818 8.42699587 -2.83496039 9.83444658 -6 12 C-5.67558396 10.33157466 -5.34060811 8.66519519 -5 7 C-4.896875 6.29875 -4.79375 5.5975 -4.6875 4.875 C-3.75323803 2.32701281 -2.23654425 1.44293178 0 0 Z " fill="#91B5F7" transform="translate(759,370)"/>
<path d="M0 0 C0.99 0 1.98 0 3 0 C2.6889315 2.06271639 2.37608484 4.12516466 2.0625 6.1875 C1.88847656 7.33605469 1.71445312 8.48460937 1.53515625 9.66796875 C1.08620687 12.46325212 0.57917838 15.22933586 0 18 C-0.33 18 -0.66 18 -1 18 C-1.09945415 11.88909517 -1.0712828 6.02596573 0 0 Z " fill="#3A55AC" transform="translate(594,499)"/>
<path d="M0 0 C0.33 0.99 0.66 1.98 1 3 C0.00390625 4.82421875 0.00390625 4.82421875 -1.4375 6.6875 C-1.91058594 7.31011719 -2.38367188 7.93273437 -2.87109375 8.57421875 C-3.24363281 9.04472656 -3.61617187 9.51523437 -4 10 C-2.02 9.67 -0.04 9.34 2 9 C1.67 9.66 1.34 10.32 1 11 C-1.06640625 11.6328125 -1.06640625 11.6328125 -3.5625 12.125 C-4.38878906 12.29257812 -5.21507812 12.46015625 -6.06640625 12.6328125 C-6.70449219 12.75398438 -7.34257813 12.87515625 -8 13 C-6.53181332 9.89257577 -4.79975 7.09528261 -2.875 4.25 C-2.33617187 3.45078125 -1.79734375 2.6515625 -1.2421875 1.828125 C-0.62730469 0.92320312 -0.62730469 0.92320312 0 0 Z " fill="#3F2FA1" transform="translate(839,450)"/>
<path d="M0 0 C-1.51890531 4.55671592 -3.95402262 8.31723292 -7 12 C-7.33 12 -7.66 12 -8 12 C-8.43769726 8.9361192 -8.60855877 6.83395091 -6.734375 4.265625 C-2.55 0 -2.55 0 0 0 Z " fill="#153757" transform="translate(745,410)"/>
<path d="M0 0 C0.66 0 1.32 0 2 0 C2.66 2.97 3.32 5.94 4 9 C3.01 8.67 2.02 8.34 1 8 C1 11.63 1 15.26 1 19 C0.67 19 0.34 19 0 19 C0 12.73 0 6.46 0 0 Z " fill="#2179AE" transform="translate(761,445)"/>
<path d="M0 0 C0.33 0 0.66 0 1 0 C1.33 2.97 1.66 5.94 2 9 C2.66 9 3.32 9 4 9 C3.25 14.75 3.25 14.75 1 17 C0 16 0 16 -0.09765625 12.40234375 C-0.0909822 10.91403133 -0.07902183 9.42573568 -0.0625 7.9375 C-0.05798828 7.17888672 -0.05347656 6.42027344 -0.04882812 5.63867188 C-0.0370068 3.75908129 -0.01907078 1.87953101 0 0 Z " fill="#2B6385" transform="translate(729,429)"/>
<path d="M0 0 C2 1 2 1 3 2 C4.34747084 2.23075082 5.70377565 2.41153063 7.0625 2.5625 C8.361875 2.706875 9.66125 2.85125 11 3 C11 3.33 11 3.66 11 4 C2.585 4.495 2.585 4.495 -6 5 C-4.35 3.68 -2.7 2.36 -1 1 C-0.67 0.67 -0.34 0.34 0 0 Z " fill="#9B59D9" transform="translate(768,370)"/>
<path d="M0 0 C1.58206057 0.00667536 3.16410534 0.0186375 4.74609375 0.03515625 C5.55240234 0.03966797 6.35871094 0.04417969 7.18945312 0.04882812 C9.18753131 0.06065107 11.18557158 0.07858711 13.18359375 0.09765625 C13.18359375 0.42765625 13.18359375 0.75765625 13.18359375 1.09765625 C10.74761284 1.48717349 8.31104581 1.85968818 5.87109375 2.22265625 C5.18080078 2.33480469 4.49050781 2.44695312 3.77929688 2.5625 C-1.4765625 3.32421875 -1.4765625 3.32421875 -4.81640625 1.09765625 C-3.81640625 0.09765625 -3.81640625 0.09765625 0 0 Z " fill="#7C79F6" transform="translate(794.81640625,319.90234375)"/>
<path d="M0 0 C5.41798672 0.69165788 10.6822785 1.75799248 16 3 C16 3.33 16 3.66 16 4 C10.22192976 4.2358396 5.48675196 3.86783046 0 2 C0 1.34 0 0.68 0 0 Z " fill="#2F3FBD" transform="translate(760,538)"/>
<path d="M0 0 C-2.125 2.0625 -2.125 2.0625 -5 4 C-8.3125 3.75 -8.3125 3.75 -11 3 C-6.7849044 -0.23157329 -5.27490657 -1.24931998 0 0 Z " fill="#B995DB" transform="translate(783,359)"/>
<path d="M0 0 C0.66 0.33 1.32 0.66 2 1 C1.360625 1.515625 0.72125 2.03125 0.0625 2.5625 C-2.55791681 5.65935623 -2.69389817 8.02067623 -3 12 C-4.32 11.34 -5.64 10.68 -7 10 C-5.15083921 5.93184627 -3.33557632 2.9905167 0 0 Z " fill="#C1EEF5" transform="translate(777,406)"/>
<path d="M0 0 C3.23861303 1.44424635 5.61969163 3.25772247 8.25 5.625 C8.95640625 6.25664063 9.6628125 6.88828125 10.390625 7.5390625 C10.92171875 8.02117188 11.4528125 8.50328125 12 9 C11.01 9.495 11.01 9.495 10 10 C8.51437458 8.90453883 7.03668291 7.79831177 5.5625 6.6875 C4.73878906 6.07261719 3.91507813 5.45773437 3.06640625 4.82421875 C1 3 1 3 0 0 Z " fill="#3A44AF" transform="translate(720,513)"/>
<path d="M0 0 C0.66 0.66 1.32 1.32 2 2 C1.50628906 2.47050781 1.01257813 2.94101562 0.50390625 3.42578125 C-0.45708984 4.35970703 -0.45708984 4.35970703 -1.4375 5.3125 C-2.07558594 5.92738281 -2.71367188 6.54226563 -3.37109375 7.17578125 C-5.2221418 9.00644056 -5.2221418 9.00644056 -6 12 C-6.99 11.67 -7.98 11.34 -9 11 C-6.03 7.37 -3.06 3.74 0 0 Z " fill="#7CC4EA" transform="translate(749,379)"/>
<path d="M0 0 C-0.33 0.99 -0.66 1.98 -1 3 C-4.96 3 -8.92 3 -13 3 C-8.21852189 0.60926095 -5.27819716 -0.11729327 0 0 Z " fill="#4756D0" transform="translate(826,538)"/>
<path d="M0 0 C0.66 0.33 1.32 0.66 2 1 C2.125 4.375 2.125 4.375 2 8 C1.34 8.66 0.68 9.32 0 10 C-0.33 9.01 -0.66 8.02 -1 7 C-1.99 7.495 -1.99 7.495 -3 8 C-1.125 2.25 -1.125 2.25 0 0 Z " fill="#69AAF1" transform="translate(875,434)"/>
<path d="M0 0 C0.33 0.99 0.66 1.98 1 3 C2.32 3 3.64 3 5 3 C4.67 4.65 4.34 6.3 4 8 C3.34 8 2.68 8 2 8 C1.67 8.99 1.34 9.98 1 11 C0.67 7.37 0.34 3.74 0 0 Z " fill="#BFA0F3" transform="translate(878,411)"/>
<path d="M0 0 C0.33 0 0.66 0 1 0 C1.21192221 5.19209404 0.5912689 9.126739 -1 14 C-1.33 14 -1.66 14 -2 14 C-2.05437607 12.41705218 -2.09296271 10.83355744 -2.125 9.25 C-2.14820313 8.36828125 -2.17140625 7.4865625 -2.1953125 6.578125 C-1.99139502 3.8864142 -1.36551721 2.30095026 0 0 Z " fill="#5828A8" transform="translate(847,425)"/>
<path d="M0 0 C2.97 0 5.94 0 9 0 C9 1.65 9 3.3 9 5 C4.545 3.02 4.545 3.02 0 1 C0 0.67 0 0.34 0 0 Z " fill="#2D51AB" transform="translate(777,376)"/>
<path d="M0 0 C0.66 0.33 1.32 0.66 2 1 C-0.97 3.97 -3.94 6.94 -7 10 C-7 5.69032084 -4.83274712 4.10253255 -2 1 C-1.34 0.67 -0.68 0.34 0 0 Z " fill="#844CD6" transform="translate(875,653)"/>
<path d="M0 0 C6.0546875 -0.1953125 6.0546875 -0.1953125 8 0 C8.66 0.66 9.32 1.32 10 2 C6.7 2.33 3.4 2.66 0 3 C0 2.01 0 1.02 0 0 Z " fill="#163262" transform="translate(816,433)"/>
<path d="M0 0 C1.21236328 0.01353516 1.21236328 0.01353516 2.44921875 0.02734375 C3.37154297 0.04474609 3.37154297 0.04474609 4.3125 0.0625 C0.83097024 2.38351984 -1.54919011 2.76153201 -5.6875 3.0625 C-6.3475 2.4025 -7.0075 1.7425 -7.6875 1.0625 C-4.80538698 0.10179566 -2.98899956 -0.04331883 0 0 Z " fill="#224478" transform="translate(824.6875,470.9375)"/>
<path d="M0 0 C0 3 0 3 -1.53125 4.60546875 C-2.1809375 5.12753906 -2.830625 5.64960938 -3.5 6.1875 C-4.1496875 6.71730469 -4.799375 7.24710937 -5.46875 7.79296875 C-5.9740625 8.19128906 -6.479375 8.58960938 -7 9 C-7.66 8.67 -8.32 8.34 -9 8 C-6.03 5.36 -3.06 2.72 0 0 Z " fill="#27A8B9" transform="translate(752,405)"/>
<path d="M0 0 C1.98 0.99 3.96 1.98 6 3 C5.01 3.33 4.02 3.66 3 4 C2.26676204 6.01508358 2.26676204 6.01508358 2 8 C0.23537317 4.91190305 0 3.76687864 0 0 Z " fill="#AC2ECA" transform="translate(845,367)"/>
<path d="M0 0 C3.3 0 6.6 0 10 0 C9.67 0.99 9.34 1.98 9 3 C5.625 3.1875 5.625 3.1875 2 3 C1.34 2.01 0.68 1.02 0 0 Z " fill="#C3E8EE" transform="translate(774,418)"/>
<path d="M0 0 C3.3 0.33 6.6 0.66 10 1 C8.68 1.33 7.36 1.66 6 2 C6 2.66 6 3.32 6 4 C3.83125748 3.49396008 2.00032373 3.00016187 0 2 C0 1.34 0 0.68 0 0 Z " fill="#5BC6ED" transform="translate(796,476)"/>
<path d="M0 0 C-1.1858237 3.37503669 -2.27573689 5.64722731 -5 8 C-4.74438677 5.6568787 -4.40729228 3.32156597 -4 1 C-2 0 -2 0 0 0 Z " fill="#6788E3" transform="translate(738,411)"/>
<path d="M0 0 C0.99 0 1.98 0 3 0 C2.67 2.31 2.34 4.62 2 7 C1.67 6.34 1.34 5.68 1 5 C0.34 5 -0.32 5 -1 5 C-0.67 3.35 -0.34 1.7 0 0 Z " fill="#AE87DE" transform="translate(880,409)"/>
<path d="M0 0 C1.65 0.33 3.3 0.66 5 1 C5 1.99 5 2.98 5 4 C2.69 4.33 0.38 4.66 -2 5 C-1.01 4.67 -0.02 4.34 1 4 C0.67 2.68 0.34 1.36 0 0 Z " fill="#457CC1" transform="translate(795,384)"/>
<path d="M0 0 C2.64 0.33 5.28 0.66 8 1 C8 1.66 8 2.32 8 3 C5.36 3.33 2.72 3.66 0 4 C0 2.68 0 1.36 0 0 Z " fill="#7CB0F3" transform="translate(942,279)"/>
<path d="M0 0 C0 0.99 0 1.98 0 3 C-2.31 4.32 -4.62 5.64 -7 7 C-6.67 5.68 -6.34 4.36 -6 3 C-4.68 3 -3.36 3 -2 3 C-2 2.34 -2 1.68 -2 1 C-1.34 0.67 -0.68 0.34 0 0 Z " fill="#5362E3" transform="translate(926,533)"/>
<path d="M0 0 C1.5625 1.75 1.5625 1.75 3 4 C2.6875 6.25 2.6875 6.25 2 8 C1.34 8 0.68 8 0 8 C-0.38063221 5.6739143 -0.71269945 3.33944736 -1 1 C-0.67 0.67 -0.34 0.34 0 0 Z " fill="#183D78" transform="translate(811,447)"/>
<path d="M0 0 C0.66 0 1.32 0 2 0 C1.34 2.97 0.68 5.94 0 9 C-0.66 8.67 -1.32 8.34 -2 8 C-1.34 5.36 -0.68 2.72 0 0 Z " fill="#77BFED" transform="translate(880,440)"/>
<path d="M0 0 C0.66 0.33 1.32 0.66 2 1 C1.67 1.33 1.34 1.66 1 2 C1.99 2.66 2.98 3.32 4 4 C1.03 4.66 -1.94 5.32 -5 6 C-3.35 4.02 -1.7 2.04 0 0 Z " fill="#334E6E" transform="translate(780,401)"/>
<path d="M0 0 C1.24546405 2.49092811 0.7767578 3.41080733 0 6 C-1.65 5.67 -3.3 5.34 -5 5 C-3.35 3.35 -1.7 1.7 0 0 Z " fill="#A1B3E8" transform="translate(759,370)"/>
<path d="M0 0 C0.99 0 1.98 0 3 0 C2.67 2.31 2.34 4.62 2 7 C1.34 7 0.68 7 0 7 C0 4.69 0 2.38 0 0 Z " fill="#3349A6" transform="translate(594,499)"/>
<path d="M0 0 C1 3 1 3 0.0625 5.1875 C-0.4634375 6.0846875 -0.4634375 6.0846875 -1 7 C-1.66 7 -2.32 7 -3 7 C-2.625 4.0625 -2.625 4.0625 -2 1 C-1.34 0.67 -0.68 0.34 0 0 Z " fill="#2F3E76" transform="translate(734,418)"/>
<path d="M0 0 C0.99 0.33 1.98 0.66 3 1 C1.35 2.65 -0.3 4.3 -2 6 C-2.66 5.67 -3.32 5.34 -4 5 C-2.68 3.35 -1.36 1.7 0 0 Z " fill="#263069" transform="translate(739,411)"/>
<path d="M0 0 C0.33 0.99 0.66 1.98 1 3 C-2.75 6 -2.75 6 -5 6 C-3.63016497 2.83884224 -3.0109362 2.0072908 0 0 Z " fill="#CF9EEF" transform="translate(774,363)"/>
<path d="M0 0 C0.66 0.33 1.32 0.66 2 1 C1.67 2.65 1.34 4.3 1 6 C0.01 6.33 -0.98 6.66 -2 7 C-1.34 4.69 -0.68 2.38 0 0 Z " fill="#72A9F1" transform="translate(923,257)"/>
</svg>
